<mxfile host="65bd71144e">
    <diagram id="qbdv0IzRGVz_0QFbCluS" name="Page-1">
        <mxGraphModel dx="634" dy="372" grid="0" gridSize="10" guides="1" tooltips="1" connect="1" arrows="1" fold="1" page="1" pageScale="1" pageWidth="850" pageHeight="1100" math="0" shadow="0">
            <root>
                <mxCell id="0"/>
                <mxCell id="1" parent="0"/>
                <mxCell id="44" value="" style="rounded=1;whiteSpace=wrap;html=1;fillColor=#FBFFF5;" parent="1" vertex="1">
                    <mxGeometry x="3" y="13" width="696" height="491" as="geometry"/>
                </mxCell>
                <mxCell id="18" value="x0" style="text;html=1;strokeColor=none;fillColor=none;align=center;verticalAlign=middle;whiteSpace=wrap;rounded=0;" parent="1" vertex="1">
                    <mxGeometry x="86" y="227" width="73" height="41" as="geometry"/>
                </mxCell>
                <mxCell id="19" value="x1" style="text;html=1;strokeColor=none;fillColor=none;align=center;verticalAlign=middle;whiteSpace=wrap;rounded=0;" parent="1" vertex="1">
                    <mxGeometry x="89" y="261" width="67" height="39.5" as="geometry"/>
                </mxCell>
                <mxCell id="20" value="s" style="text;html=1;strokeColor=none;fillColor=none;align=center;verticalAlign=middle;whiteSpace=wrap;rounded=0;" parent="1" vertex="1">
                    <mxGeometry x="263.13" y="333" width="60" height="30" as="geometry"/>
                </mxCell>
                <mxCell id="21" value="q" style="text;html=1;strokeColor=none;fillColor=none;align=center;verticalAlign=middle;whiteSpace=wrap;rounded=0;" parent="1" vertex="1">
                    <mxGeometry x="469" y="249" width="60" height="30" as="geometry"/>
                </mxCell>
                <mxCell id="22" value="RESPONDER AQUI DENTRO" style="text;html=1;align=center;verticalAlign=middle;resizable=0;points=[];autosize=1;strokeColor=none;fillColor=none;" parent="1" vertex="1">
                    <mxGeometry x="567" y="506" width="190" height="30" as="geometry"/>
                </mxCell>
                <mxCell id="23" value="Componentes que podem ser usados!&amp;nbsp;" style="text;html=1;strokeColor=none;fillColor=none;align=center;verticalAlign=middle;whiteSpace=wrap;rounded=0;" parent="1" vertex="1">
                    <mxGeometry x="379" y="455" width="320" height="30" as="geometry"/>
                </mxCell>
                <mxCell id="3" value="" style="verticalLabelPosition=bottom;shadow=0;dashed=0;align=center;html=1;verticalAlign=top;shape=mxgraph.electrical.logic_gates.buffer2;fillColor=#FFFFFF;" parent="1" vertex="1">
                    <mxGeometry x="70" y="713" width="100" height="60" as="geometry"/>
                </mxCell>
                <mxCell id="4" value="" style="verticalLabelPosition=bottom;shadow=0;dashed=0;align=center;html=1;verticalAlign=top;shape=mxgraph.electrical.logic_gates.logic_gate;operation=and;negating=1;negSize=0.15;fillColor=#FFFFFF;" parent="1" vertex="1">
                    <mxGeometry x="190" y="633" width="100" height="60" as="geometry"/>
                </mxCell>
                <mxCell id="5" value="" style="verticalLabelPosition=bottom;shadow=0;dashed=0;align=center;html=1;verticalAlign=top;shape=mxgraph.electrical.logic_gates.logic_gate;operation=and;fillColor=#FFFFFF;" parent="1" vertex="1">
                    <mxGeometry x="70" y="633" width="100" height="60" as="geometry"/>
                </mxCell>
                <mxCell id="6" value="" style="verticalLabelPosition=bottom;shadow=0;dashed=0;align=center;html=1;verticalAlign=top;shape=mxgraph.electrical.logic_gates.logic_gate;operation=or;fillColor=#FFFFFF;" parent="1" vertex="1">
                    <mxGeometry x="243.07" y="410" width="100" height="60" as="geometry"/>
                </mxCell>
                <mxCell id="7" value="" style="verticalLabelPosition=bottom;shadow=0;dashed=0;align=center;html=1;verticalAlign=top;shape=mxgraph.electrical.logic_gates.logic_gate;operation=xor;fillColor=#FFFFFF;" parent="1" vertex="1">
                    <mxGeometry x="310" y="633" width="100" height="60" as="geometry"/>
                </mxCell>
                <mxCell id="8" value="" style="verticalLabelPosition=bottom;shadow=0;dashed=0;align=center;html=1;verticalAlign=top;shape=mxgraph.electrical.logic_gates.logic_gate;operation=xor;negating=1;negSize=0.15;fillColor=#FFFFFF;" parent="1" vertex="1">
                    <mxGeometry x="200" y="713" width="100" height="60" as="geometry"/>
                </mxCell>
                <mxCell id="13" value="" style="shape=flexArrow;endArrow=classic;html=1;entryX=0.104;entryY=0.208;entryDx=0;entryDy=0;entryPerimeter=0;fillColor=#FFFFFF;" parent="1" edge="1">
                    <mxGeometry width="50" height="50" relative="1" as="geometry">
                        <mxPoint x="335" y="263.59999999999997" as="sourcePoint"/>
                        <mxPoint x="474.9200000000001" y="263.4399999999999" as="targetPoint"/>
                    </mxGeometry>
                </mxCell>
                <mxCell id="15" value="" style="endArrow=classic;html=1;fillColor=#FFFFFF;entryX=0.104;entryY=0.229;entryDx=0;entryDy=0;entryPerimeter=0;" parent="1" edge="1">
                    <mxGeometry width="50" height="50" relative="1" as="geometry">
                        <mxPoint x="133.07999999999998" y="249.07999999999993" as="sourcePoint"/>
                        <mxPoint x="263.00000000000006" y="248.99999999999977" as="targetPoint"/>
                        <Array as="points">
                            <mxPoint x="191.07999999999998" y="249"/>
                        </Array>
                    </mxGeometry>
                </mxCell>
                <mxCell id="33" value="" style="group" parent="1" vertex="1" connectable="0">
                    <mxGeometry x="450" y="643" width="60.129999999999995" height="100" as="geometry"/>
                </mxCell>
                <mxCell id="24" value="" style="endArrow=none;html=1;" parent="33" edge="1">
                    <mxGeometry width="50" height="50" relative="1" as="geometry">
                        <mxPoint y="70" as="sourcePoint"/>
                        <mxPoint y="30" as="targetPoint"/>
                    </mxGeometry>
                </mxCell>
                <mxCell id="25" value="" style="endArrow=none;html=1;" parent="33" edge="1">
                    <mxGeometry width="50" height="50" relative="1" as="geometry">
                        <mxPoint x="60.129999999999995" y="100" as="sourcePoint"/>
                        <mxPoint x="60.129999999999995" as="targetPoint"/>
                    </mxGeometry>
                </mxCell>
                <mxCell id="26" value="" style="endArrow=none;html=1;" parent="33" edge="1">
                    <mxGeometry width="50" height="50" relative="1" as="geometry">
                        <mxPoint x="0.12999999999999545" y="30" as="sourcePoint"/>
                        <mxPoint x="60.129999999999995" as="targetPoint"/>
                    </mxGeometry>
                </mxCell>
                <mxCell id="27" value="" style="endArrow=none;html=1;" parent="33" edge="1">
                    <mxGeometry width="50" height="50" relative="1" as="geometry">
                        <mxPoint x="0.12999999999999545" y="70" as="sourcePoint"/>
                        <mxPoint x="60.129999999999995" y="100" as="targetPoint"/>
                    </mxGeometry>
                </mxCell>
                <mxCell id="35" value="demux" style="text;html=1;align=center;verticalAlign=middle;resizable=0;points=[];autosize=1;strokeColor=none;fillColor=none;" parent="33" vertex="1">
                    <mxGeometry x="0.06999999999999318" y="35" width="60" height="30" as="geometry"/>
                </mxCell>
                <mxCell id="43" value="" style="endArrow=classic;html=1;" parent="33" edge="1">
                    <mxGeometry width="50" height="50" relative="1" as="geometry">
                        <mxPoint x="29.940000000000055" y="120" as="sourcePoint"/>
                        <mxPoint x="29.940000000000055" y="90" as="targetPoint"/>
                    </mxGeometry>
                </mxCell>
                <mxCell id="36" value="" style="group;rotation=-180;" parent="1" vertex="1" connectable="0">
                    <mxGeometry x="263" y="214" width="60.129999999999995" height="100" as="geometry"/>
                </mxCell>
                <mxCell id="37" value="" style="endArrow=none;html=1;" parent="36" edge="1">
                    <mxGeometry width="50" height="50" relative="1" as="geometry">
                        <mxPoint x="60" y="30" as="sourcePoint"/>
                        <mxPoint x="60" y="70" as="targetPoint"/>
                    </mxGeometry>
                </mxCell>
                <mxCell id="38" value="" style="endArrow=none;html=1;" parent="36" edge="1">
                    <mxGeometry width="50" height="50" relative="1" as="geometry">
                        <mxPoint as="sourcePoint"/>
                        <mxPoint y="100" as="targetPoint"/>
                    </mxGeometry>
                </mxCell>
                <mxCell id="39" value="" style="endArrow=none;html=1;" parent="36" edge="1">
                    <mxGeometry width="50" height="50" relative="1" as="geometry">
                        <mxPoint x="60" y="70" as="sourcePoint"/>
                        <mxPoint y="100" as="targetPoint"/>
                    </mxGeometry>
                </mxCell>
                <mxCell id="40" value="" style="endArrow=none;html=1;" parent="36" edge="1">
                    <mxGeometry width="50" height="50" relative="1" as="geometry">
                        <mxPoint x="60" y="30" as="sourcePoint"/>
                        <mxPoint as="targetPoint"/>
                    </mxGeometry>
                </mxCell>
                <mxCell id="41" value="mux" style="text;html=1;align=center;verticalAlign=middle;resizable=0;points=[];autosize=1;strokeColor=none;fillColor=none;" parent="36" vertex="1">
                    <mxGeometry x="5.069999999999993" y="35" width="50" height="30" as="geometry"/>
                </mxCell>
                <mxCell id="42" value="" style="endArrow=classic;html=1;" parent="36" edge="1">
                    <mxGeometry width="50" height="50" relative="1" as="geometry">
                        <mxPoint x="29.940000000000055" y="120" as="sourcePoint"/>
                        <mxPoint x="29.940000000000055" y="90" as="targetPoint"/>
                    </mxGeometry>
                </mxCell>
                <mxCell id="46" value="" style="endArrow=classic;html=1;fillColor=#FFFFFF;entryX=0.104;entryY=0.229;entryDx=0;entryDy=0;entryPerimeter=0;" edge="1" parent="1">
                    <mxGeometry width="50" height="50" relative="1" as="geometry">
                        <mxPoint x="133.07999999999993" y="281.9699999999999" as="sourcePoint"/>
                        <mxPoint x="263" y="281.8899999999999" as="targetPoint"/>
                        <Array as="points">
                            <mxPoint x="191.07999999999998" y="281.89"/>
                        </Array>
                    </mxGeometry>
                </mxCell>
            </root>
        </mxGraphModel>
    </diagram>
</mxfile>